<?xml version="1.0" encoding="UTF-8" standalone="no"?>
<!DOCTYPE svg PUBLIC "-//W3C//DTD SVG 1.1//EN"
 "http://www.w3.org/Graphics/SVG/1.1/DTD/svg11.dtd">
<!-- Generated by graphviz version 6.0.1 (20220911.2005)
 -->
<!-- Title: snakemake_dag Pages: 1 -->
<svg width="1346pt" height="836pt"
 viewBox="0.00 0.00 1346.00 836.00" xmlns="http://www.w3.org/2000/svg" xmlns:xlink="http://www.w3.org/1999/xlink">
<g id="graph0" class="graph" transform="scale(1 1) rotate(0) translate(4 832)">
<title>snakemake_dag</title>
<polygon fill="white" stroke="none" points="-4,4 -4,-832 1342,-832 1342,4 -4,4"/>
<!-- 0 -->
<g id="node1" class="node">
<title>0</title>
<path fill="none" stroke="#d8a456" stroke-width="2" stroke-dasharray="5,2" d="M662,-36C662,-36 632,-36 632,-36 626,-36 620,-30 620,-24 620,-24 620,-12 620,-12 620,-6 626,0 632,0 632,0 662,0 662,0 668,0 674,-6 674,-12 674,-12 674,-24 674,-24 674,-30 668,-36 662,-36"/>
<text text-anchor="middle" x="647" y="-15.5" font-family="sans" font-size="10.00">all</text>
</g>
<!-- 1 -->
<g id="node2" class="node">
<title>1</title>
<path fill="none" stroke="#68d856" stroke-width="2" stroke-dasharray="5,2" d="M684,-108C684,-108 610,-108 610,-108 604,-108 598,-102 598,-96 598,-96 598,-84 598,-84 598,-78 604,-72 610,-72 610,-72 684,-72 684,-72 690,-72 696,-78 696,-84 696,-84 696,-96 696,-96 696,-102 690,-108 684,-108"/>
<text text-anchor="middle" x="647" y="-87.5" font-family="sans" font-size="10.00">samtools_merge</text>
</g>
<!-- 1&#45;&gt;0 -->
<g id="edge1" class="edge">
<title>1&#45;&gt;0</title>
<path fill="none" stroke="grey" stroke-width="2" d="M647,-71.7C647,-63.98 647,-54.71 647,-46.11"/>
<polygon fill="grey" stroke="grey" stroke-width="2" points="650.5,-46.1 647,-36.1 643.5,-46.1 650.5,-46.1"/>
</g>
<!-- 2 -->
<g id="node3" class="node">
<title>2</title>
<path fill="none" stroke="#b6d856" stroke-width="2" stroke-dasharray="5,2" d="M403,-180C403,-180 341,-180 341,-180 335,-180 329,-174 329,-168 329,-168 329,-156 329,-156 329,-150 335,-144 341,-144 341,-144 403,-144 403,-144 409,-144 415,-150 415,-156 415,-156 415,-168 415,-168 415,-174 409,-180 403,-180"/>
<text text-anchor="middle" x="372" y="-159.5" font-family="sans" font-size="10.00">samtools_sort</text>
</g>
<!-- 2&#45;&gt;1 -->
<g id="edge2" class="edge">
<title>2&#45;&gt;1</title>
<path fill="none" stroke="grey" stroke-width="2" d="M415.33,-148.98C421.58,-147.28 427.95,-145.58 434,-144 485.88,-130.44 545.08,-115.77 587.88,-105.31"/>
<polygon fill="grey" stroke="grey" stroke-width="2" points="588.96,-108.65 597.85,-102.88 587.3,-101.85 588.96,-108.65"/>
</g>
<!-- 3 -->
<g id="node4" class="node">
<title>3</title>
<path fill="none" stroke="#56d86b" stroke-width="2" stroke-dasharray="5,2" d="M388,-252C388,-252 322,-252 322,-252 316,-252 310,-246 310,-240 310,-240 310,-228 310,-228 310,-222 316,-216 322,-216 322,-216 388,-216 388,-216 394,-216 400,-222 400,-228 400,-228 400,-240 400,-240 400,-246 394,-252 388,-252"/>
<text text-anchor="middle" x="355" y="-231.5" font-family="sans" font-size="10.00">samtools_view</text>
</g>
<!-- 3&#45;&gt;2 -->
<g id="edge10" class="edge">
<title>3&#45;&gt;2</title>
<path fill="none" stroke="grey" stroke-width="2" d="M359.2,-215.7C361.1,-207.9 363.38,-198.51 365.48,-189.83"/>
<polygon fill="grey" stroke="grey" stroke-width="2" points="368.89,-190.65 367.85,-180.1 362.08,-189 368.89,-190.65"/>
</g>
<!-- 4 -->
<g id="node5" class="node">
<title>4</title>
<path fill="none" stroke="#56a9d8" stroke-width="2" stroke-dasharray="5,2" d="M385,-324C385,-324 305,-324 305,-324 299,-324 293,-318 293,-312 293,-312 293,-300 293,-300 293,-294 299,-288 305,-288 305,-288 385,-288 385,-288 391,-288 397,-294 397,-300 397,-300 397,-312 397,-312 397,-318 391,-324 385,-324"/>
<text text-anchor="middle" x="345" y="-303.5" font-family="sans" font-size="10.00">bwa_mem2_mem</text>
</g>
<!-- 4&#45;&gt;3 -->
<g id="edge11" class="edge">
<title>4&#45;&gt;3</title>
<path fill="none" stroke="grey" stroke-width="2" d="M347.47,-287.7C348.57,-279.98 349.9,-270.71 351.13,-262.11"/>
<polygon fill="grey" stroke="grey" stroke-width="2" points="354.61,-262.5 352.56,-252.1 347.68,-261.51 354.61,-262.5"/>
</g>
<!-- 5 -->
<g id="node6" class="node">
<title>5</title>
<path fill="none" stroke="#56d8b9" stroke-width="2" stroke-dasharray="5,2" d="M207,-684C207,-684 125,-684 125,-684 119,-684 113,-678 113,-672 113,-672 113,-660 113,-660 113,-654 119,-648 125,-648 125,-648 207,-648 207,-648 213,-648 219,-654 219,-660 219,-660 219,-672 219,-672 219,-678 213,-684 207,-684"/>
<text text-anchor="middle" x="166" y="-663.5" font-family="sans" font-size="10.00">bwa_mem2_index</text>
</g>
<!-- 5&#45;&gt;4 -->
<g id="edge12" class="edge">
<title>5&#45;&gt;4</title>
<path fill="none" stroke="grey" stroke-width="2" d="M159.52,-647.79C150.17,-621.36 134,-568.99 134,-523 134,-523 134,-523 134,-449 134,-410.05 234.23,-357.33 296.53,-328.33"/>
<polygon fill="grey" stroke="grey" stroke-width="2" points="298.19,-331.42 305.81,-324.06 295.26,-325.06 298.19,-331.42"/>
</g>
<!-- 6 -->
<g id="node7" class="node">
<title>6</title>
<path fill="none" stroke="#d85656" stroke-width="2" stroke-dasharray="5,2" d="M429,-828C429,-828 365,-828 365,-828 359,-828 353,-822 353,-816 353,-816 353,-804 353,-804 353,-798 359,-792 365,-792 365,-792 429,-792 429,-792 435,-792 441,-798 441,-804 441,-804 441,-816 441,-816 441,-822 435,-828 429,-828"/>
<text text-anchor="middle" x="397" y="-813" font-family="sans" font-size="10.00">create_bin_file</text>
<text text-anchor="middle" x="397" y="-802" font-family="sans" font-size="10.00">bin_id: 0</text>
</g>
<!-- 6&#45;&gt;5 -->
<g id="edge14" class="edge">
<title>6&#45;&gt;5</title>
<path fill="none" stroke="grey" stroke-width="2" d="M352.78,-794.59C306.6,-779.49 240.48,-757.72 238,-756 214.06,-739.41 193.94,-712.64 181.1,-692.79"/>
<polygon fill="grey" stroke="grey" stroke-width="2" points="184.01,-690.84 175.73,-684.22 178.07,-694.55 184.01,-690.84"/>
</g>
<!-- 9 -->
<g id="node10" class="node">
<title>9</title>
<path fill="none" stroke="#d87d56" stroke-width="2" stroke-dasharray="5,2" d="M694.5,-540C694.5,-540 643.5,-540 643.5,-540 637.5,-540 631.5,-534 631.5,-528 631.5,-528 631.5,-516 631.5,-516 631.5,-510 637.5,-504 643.5,-504 643.5,-504 694.5,-504 694.5,-504 700.5,-504 706.5,-510 706.5,-516 706.5,-516 706.5,-528 706.5,-528 706.5,-534 700.5,-540 694.5,-540"/>
<text text-anchor="middle" x="669" y="-519.5" font-family="sans" font-size="10.00">raptor_build</text>
</g>
<!-- 6&#45;&gt;9 -->
<g id="edge18" class="edge">
<title>6&#45;&gt;9</title>
<path fill="none" stroke="grey" stroke-width="2" d="M406.41,-791.82C429.8,-750.34 494.34,-643.2 572,-576 586.82,-563.18 605.24,-552.16 622.04,-543.53"/>
<polygon fill="grey" stroke="grey" stroke-width="2" points="623.78,-546.58 631.17,-539 620.66,-540.31 623.78,-546.58"/>
</g>
<!-- 11 -->
<g id="node12" class="node">
<title>11</title>
<path fill="none" stroke="#567bd8" stroke-width="2" stroke-dasharray="5,2" d="M701,-684C701,-684 637,-684 637,-684 631,-684 625,-678 625,-672 625,-672 625,-660 625,-660 625,-654 631,-648 637,-648 637,-648 701,-648 701,-648 707,-648 713,-654 713,-660 713,-660 713,-672 713,-672 713,-678 707,-684 701,-684"/>
<text text-anchor="middle" x="669" y="-663.5" font-family="sans" font-size="10.00">chopper_count</text>
</g>
<!-- 6&#45;&gt;11 -->
<g id="edge28" class="edge">
<title>6&#45;&gt;11</title>
<path fill="none" stroke="grey" stroke-width="2" d="M428.37,-791.84C461.65,-773.71 515.82,-744.44 563,-720 583.25,-709.51 605.84,-698.17 624.95,-688.68"/>
<polygon fill="grey" stroke="grey" stroke-width="2" points="626.62,-691.75 634.02,-684.18 623.51,-685.48 626.62,-691.75"/>
</g>
<!-- 12 -->
<g id="node13" class="node">
<title>12</title>
<path fill="none" stroke="#56d892" stroke-width="2" stroke-dasharray="5,2" d="M698,-756C698,-756 640,-756 640,-756 634,-756 628,-750 628,-744 628,-744 628,-732 628,-732 628,-726 634,-720 640,-720 640,-720 698,-720 698,-720 704,-720 710,-726 710,-732 710,-732 710,-744 710,-744 710,-750 704,-756 698,-756"/>
<text text-anchor="middle" x="669" y="-735.5" font-family="sans" font-size="10.00">write_bin_list</text>
</g>
<!-- 6&#45;&gt;12 -->
<g id="edge36" class="edge">
<title>6&#45;&gt;12</title>
<path fill="none" stroke="grey" stroke-width="2" d="M441.17,-794.57C444.15,-793.67 447.12,-792.81 450,-792 506.95,-776 573.03,-760.41 617.59,-750.33"/>
<polygon fill="grey" stroke="grey" stroke-width="2" points="618.61,-753.68 627.6,-748.07 617.07,-746.86 618.61,-753.68"/>
</g>
<!-- 7 -->
<g id="node8" class="node">
<title>7</title>
<path fill="none" stroke="#56d0d8" stroke-width="2" stroke-dasharray="5,2" d="M707,-396C707,-396 631,-396 631,-396 625,-396 619,-390 619,-384 619,-384 619,-372 619,-372 619,-366 625,-360 631,-360 631,-360 707,-360 707,-360 713,-360 719,-366 719,-372 719,-372 719,-384 719,-384 719,-390 713,-396 707,-396"/>
<text text-anchor="middle" x="669" y="-375.5" font-family="sans" font-size="10.00">query_distributor</text>
</g>
<!-- 7&#45;&gt;4 -->
<g id="edge13" class="edge">
<title>7&#45;&gt;4</title>
<path fill="none" stroke="grey" stroke-width="2" d="M618.83,-368.02C567.91,-358.65 486.61,-343 407.34,-324.24"/>
<polygon fill="grey" stroke="grey" stroke-width="2" points="407.72,-320.73 397.18,-321.81 406.09,-327.54 407.72,-320.73"/>
</g>
<!-- 22 -->
<g id="node23" class="node">
<title>22</title>
<path fill="none" stroke="#56a9d8" stroke-width="2" stroke-dasharray="5,2" d="M507,-324C507,-324 427,-324 427,-324 421,-324 415,-318 415,-312 415,-312 415,-300 415,-300 415,-294 421,-288 427,-288 427,-288 507,-288 507,-288 513,-288 519,-294 519,-300 519,-300 519,-312 519,-312 519,-318 513,-324 507,-324"/>
<text text-anchor="middle" x="467" y="-303.5" font-family="sans" font-size="10.00">bwa_mem2_mem</text>
</g>
<!-- 7&#45;&gt;22 -->
<g id="edge47" class="edge">
<title>7&#45;&gt;22</title>
<path fill="none" stroke="grey" stroke-width="2" d="M619.84,-359.97C591.5,-350.14 555.68,-337.73 525.84,-327.39"/>
<polygon fill="grey" stroke="grey" stroke-width="2" points="526.97,-324.08 516.38,-324.11 524.68,-330.69 526.97,-324.08"/>
</g>
<!-- 26 -->
<g id="node27" class="node">
<title>26</title>
<path fill="none" stroke="#56a9d8" stroke-width="2" stroke-dasharray="5,2" d="M629,-324C629,-324 549,-324 549,-324 543,-324 537,-318 537,-312 537,-312 537,-300 537,-300 537,-294 543,-288 549,-288 549,-288 629,-288 629,-288 635,-288 641,-294 641,-300 641,-300 641,-312 641,-312 641,-318 635,-324 629,-324"/>
<text text-anchor="middle" x="589" y="-303.5" font-family="sans" font-size="10.00">bwa_mem2_mem</text>
</g>
<!-- 7&#45;&gt;26 -->
<g id="edge52" class="edge">
<title>7&#45;&gt;26</title>
<path fill="none" stroke="grey" stroke-width="2" d="M649.22,-359.7C639.25,-350.97 626.99,-340.24 616.14,-330.75"/>
<polygon fill="grey" stroke="grey" stroke-width="2" points="618.38,-328.06 608.55,-324.1 613.77,-333.32 618.38,-328.06"/>
</g>
<!-- 30 -->
<g id="node31" class="node">
<title>30</title>
<path fill="none" stroke="#56a9d8" stroke-width="2" stroke-dasharray="5,2" d="M263,-324C263,-324 183,-324 183,-324 177,-324 171,-318 171,-312 171,-312 171,-300 171,-300 171,-294 177,-288 183,-288 183,-288 263,-288 263,-288 269,-288 275,-294 275,-300 275,-300 275,-312 275,-312 275,-318 269,-324 263,-324"/>
<text text-anchor="middle" x="223" y="-303.5" font-family="sans" font-size="10.00">bwa_mem2_mem</text>
</g>
<!-- 7&#45;&gt;30 -->
<g id="edge57" class="edge">
<title>7&#45;&gt;30</title>
<path fill="none" stroke="grey" stroke-width="2" d="M618.79,-372.27C546.89,-365.03 410.36,-349.49 285.27,-324.11"/>
<polygon fill="grey" stroke="grey" stroke-width="2" points="285.63,-320.61 275.13,-322.03 284.22,-327.47 285.63,-320.61"/>
</g>
<!-- 34 -->
<g id="node35" class="node">
<title>34</title>
<path fill="none" stroke="#56a9d8" stroke-width="2" stroke-dasharray="5,2" d="M995,-324C995,-324 915,-324 915,-324 909,-324 903,-318 903,-312 903,-312 903,-300 903,-300 903,-294 909,-288 915,-288 915,-288 995,-288 995,-288 1001,-288 1007,-294 1007,-300 1007,-300 1007,-312 1007,-312 1007,-318 1001,-324 995,-324"/>
<text text-anchor="middle" x="955" y="-303.5" font-family="sans" font-size="10.00">bwa_mem2_mem</text>
</g>
<!-- 7&#45;&gt;34 -->
<g id="edge62" class="edge">
<title>7&#45;&gt;34</title>
<path fill="none" stroke="grey" stroke-width="2" d="M719.19,-365.79C762.65,-355.94 827.43,-340.94 892.74,-324.28"/>
<polygon fill="grey" stroke="grey" stroke-width="2" points="893.98,-327.57 902.79,-321.7 892.24,-320.79 893.98,-327.57"/>
</g>
<!-- 38 -->
<g id="node39" class="node">
<title>38</title>
<path fill="none" stroke="#56a9d8" stroke-width="2" stroke-dasharray="5,2" d="M1117,-324C1117,-324 1037,-324 1037,-324 1031,-324 1025,-318 1025,-312 1025,-312 1025,-300 1025,-300 1025,-294 1031,-288 1037,-288 1037,-288 1117,-288 1117,-288 1123,-288 1129,-294 1129,-300 1129,-300 1129,-312 1129,-312 1129,-318 1123,-324 1117,-324"/>
<text text-anchor="middle" x="1077" y="-303.5" font-family="sans" font-size="10.00">bwa_mem2_mem</text>
</g>
<!-- 7&#45;&gt;38 -->
<g id="edge67" class="edge">
<title>7&#45;&gt;38</title>
<path fill="none" stroke="grey" stroke-width="2" d="M719.05,-371.27C784.82,-363.33 904.04,-347.47 1014.85,-324.11"/>
<polygon fill="grey" stroke="grey" stroke-width="2" points="1015.81,-327.49 1024.86,-321.98 1014.35,-320.64 1015.81,-327.49"/>
</g>
<!-- 42 -->
<g id="node43" class="node">
<title>42</title>
<path fill="none" stroke="#56a9d8" stroke-width="2" stroke-dasharray="5,2" d="M751,-324C751,-324 671,-324 671,-324 665,-324 659,-318 659,-312 659,-312 659,-300 659,-300 659,-294 665,-288 671,-288 671,-288 751,-288 751,-288 757,-288 763,-294 763,-300 763,-300 763,-312 763,-312 763,-318 757,-324 751,-324"/>
<text text-anchor="middle" x="711" y="-303.5" font-family="sans" font-size="10.00">bwa_mem2_mem</text>
</g>
<!-- 7&#45;&gt;42 -->
<g id="edge72" class="edge">
<title>7&#45;&gt;42</title>
<path fill="none" stroke="grey" stroke-width="2" d="M679.38,-359.7C684.26,-351.56 690.19,-341.69 695.58,-332.7"/>
<polygon fill="grey" stroke="grey" stroke-width="2" points="698.59,-334.48 700.74,-324.1 692.59,-330.88 698.59,-334.48"/>
</g>
<!-- 46 -->
<g id="node47" class="node">
<title>46</title>
<path fill="none" stroke="#56a9d8" stroke-width="2" stroke-dasharray="5,2" d="M873,-324C873,-324 793,-324 793,-324 787,-324 781,-318 781,-312 781,-312 781,-300 781,-300 781,-294 787,-288 793,-288 793,-288 873,-288 873,-288 879,-288 885,-294 885,-300 885,-300 885,-312 885,-312 885,-318 879,-324 873,-324"/>
<text text-anchor="middle" x="833" y="-303.5" font-family="sans" font-size="10.00">bwa_mem2_mem</text>
</g>
<!-- 7&#45;&gt;46 -->
<g id="edge77" class="edge">
<title>7&#45;&gt;46</title>
<path fill="none" stroke="grey" stroke-width="2" d="M709.12,-359.88C731.64,-350.26 759.92,-338.19 783.77,-328.01"/>
<polygon fill="grey" stroke="grey" stroke-width="2" points="785.19,-331.21 793.01,-324.07 782.44,-324.77 785.19,-331.21"/>
</g>
<!-- 8 -->
<g id="node9" class="node">
<title>8</title>
<path fill="none" stroke="#8fd856" stroke-width="2" stroke-dasharray="5,2" d="M698.5,-468C698.5,-468 639.5,-468 639.5,-468 633.5,-468 627.5,-462 627.5,-456 627.5,-456 627.5,-444 627.5,-444 627.5,-438 633.5,-432 639.5,-432 639.5,-432 698.5,-432 698.5,-432 704.5,-432 710.5,-438 710.5,-444 710.5,-444 710.5,-456 710.5,-456 710.5,-462 704.5,-468 698.5,-468"/>
<text text-anchor="middle" x="669" y="-447.5" font-family="sans" font-size="10.00">raptor_search</text>
</g>
<!-- 8&#45;&gt;7 -->
<g id="edge15" class="edge">
<title>8&#45;&gt;7</title>
<path fill="none" stroke="grey" stroke-width="2" d="M669,-431.7C669,-423.98 669,-414.71 669,-406.11"/>
<polygon fill="grey" stroke="grey" stroke-width="2" points="672.5,-406.1 669,-396.1 665.5,-406.1 672.5,-406.1"/>
</g>
<!-- 9&#45;&gt;8 -->
<g id="edge16" class="edge">
<title>9&#45;&gt;8</title>
<path fill="none" stroke="grey" stroke-width="2" d="M669,-503.7C669,-495.98 669,-486.71 669,-478.11"/>
<polygon fill="grey" stroke="grey" stroke-width="2" points="672.5,-478.1 669,-468.1 665.5,-478.1 672.5,-478.1"/>
</g>
<!-- 10 -->
<g id="node11" class="node">
<title>10</title>
<path fill="none" stroke="#d8cb56" stroke-width="2" stroke-dasharray="5,2" d="M703,-612C703,-612 635,-612 635,-612 629,-612 623,-606 623,-600 623,-600 623,-588 623,-588 623,-582 629,-576 635,-576 635,-576 703,-576 703,-576 709,-576 715,-582 715,-588 715,-588 715,-600 715,-600 715,-606 709,-612 703,-612"/>
<text text-anchor="middle" x="669" y="-591.5" font-family="sans" font-size="10.00">chopper_layout</text>
</g>
<!-- 10&#45;&gt;9 -->
<g id="edge17" class="edge">
<title>10&#45;&gt;9</title>
<path fill="none" stroke="grey" stroke-width="2" d="M669,-575.7C669,-567.98 669,-558.71 669,-550.11"/>
<polygon fill="grey" stroke="grey" stroke-width="2" points="672.5,-550.1 669,-540.1 665.5,-550.1 672.5,-550.1"/>
</g>
<!-- 11&#45;&gt;10 -->
<g id="edge26" class="edge">
<title>11&#45;&gt;10</title>
<path fill="none" stroke="grey" stroke-width="2" d="M669,-647.7C669,-639.98 669,-630.71 669,-622.11"/>
<polygon fill="grey" stroke="grey" stroke-width="2" points="672.5,-622.1 669,-612.1 665.5,-622.1 672.5,-622.1"/>
</g>
<!-- 12&#45;&gt;11 -->
<g id="edge27" class="edge">
<title>12&#45;&gt;11</title>
<path fill="none" stroke="grey" stroke-width="2" d="M669,-719.7C669,-711.98 669,-702.71 669,-694.11"/>
<polygon fill="grey" stroke="grey" stroke-width="2" points="672.5,-694.1 669,-684.1 665.5,-694.1 672.5,-694.1"/>
</g>
<!-- 13 -->
<g id="node14" class="node">
<title>13</title>
<path fill="none" stroke="#d85656" stroke-width="2" stroke-dasharray="5,2" d="M535,-828C535,-828 471,-828 471,-828 465,-828 459,-822 459,-816 459,-816 459,-804 459,-804 459,-798 465,-792 471,-792 471,-792 535,-792 535,-792 541,-792 547,-798 547,-804 547,-804 547,-816 547,-816 547,-822 541,-828 535,-828"/>
<text text-anchor="middle" x="503" y="-813" font-family="sans" font-size="10.00">create_bin_file</text>
<text text-anchor="middle" x="503" y="-802" font-family="sans" font-size="10.00">bin_id: 1</text>
</g>
<!-- 13&#45;&gt;9 -->
<g id="edge19" class="edge">
<title>13&#45;&gt;9</title>
<path fill="none" stroke="grey" stroke-width="2" d="M506.74,-791.92C516.32,-751.12 544.91,-646.16 599,-576 607.84,-564.54 619.75,-554.29 631.24,-545.93"/>
<polygon fill="grey" stroke="grey" stroke-width="2" points="633.28,-548.77 639.48,-540.18 629.28,-543.03 633.28,-548.77"/>
</g>
<!-- 13&#45;&gt;11 -->
<g id="edge29" class="edge">
<title>13&#45;&gt;11</title>
<path fill="none" stroke="grey" stroke-width="2" d="M522.68,-791.86C543.36,-773.88 576.87,-744.84 606,-720 617.27,-710.39 629.73,-699.88 640.58,-690.77"/>
<polygon fill="grey" stroke="grey" stroke-width="2" points="643.1,-693.23 648.51,-684.12 638.6,-687.86 643.1,-693.23"/>
</g>
<!-- 13&#45;&gt;12 -->
<g id="edge37" class="edge">
<title>13&#45;&gt;12</title>
<path fill="none" stroke="grey" stroke-width="2" d="M543.61,-791.88C566.4,-782.26 595.03,-770.19 619.17,-760.01"/>
<polygon fill="grey" stroke="grey" stroke-width="2" points="620.67,-763.18 628.52,-756.07 617.95,-756.73 620.67,-763.18"/>
</g>
<!-- 23 -->
<g id="node24" class="node">
<title>23</title>
<path fill="none" stroke="#56d8b9" stroke-width="2" stroke-dasharray="5,2" d="M256,-612C256,-612 174,-612 174,-612 168,-612 162,-606 162,-600 162,-600 162,-588 162,-588 162,-582 168,-576 174,-576 174,-576 256,-576 256,-576 262,-576 268,-582 268,-588 268,-588 268,-600 268,-600 268,-606 262,-612 256,-612"/>
<text text-anchor="middle" x="215" y="-591.5" font-family="sans" font-size="10.00">bwa_mem2_index</text>
</g>
<!-- 13&#45;&gt;23 -->
<g id="edge48" class="edge">
<title>13&#45;&gt;23</title>
<path fill="none" stroke="grey" stroke-width="2" d="M458.99,-794.14C419.6,-780.63 366.73,-761.94 358,-756 303.24,-718.74 255.79,-655.94 231.75,-620.8"/>
<polygon fill="grey" stroke="grey" stroke-width="2" points="234.37,-618.42 225.88,-612.08 228.56,-622.33 234.37,-618.42"/>
</g>
<!-- 14 -->
<g id="node15" class="node">
<title>14</title>
<path fill="none" stroke="#d85656" stroke-width="2" stroke-dasharray="5,2" d="M641,-828C641,-828 577,-828 577,-828 571,-828 565,-822 565,-816 565,-816 565,-804 565,-804 565,-798 571,-792 577,-792 577,-792 641,-792 641,-792 647,-792 653,-798 653,-804 653,-804 653,-816 653,-816 653,-822 647,-828 641,-828"/>
<text text-anchor="middle" x="609" y="-813" font-family="sans" font-size="10.00">create_bin_file</text>
<text text-anchor="middle" x="609" y="-802" font-family="sans" font-size="10.00">bin_id: 2</text>
</g>
<!-- 14&#45;&gt;9 -->
<g id="edge20" class="edge">
<title>14&#45;&gt;9</title>
<path fill="none" stroke="grey" stroke-width="2" d="M604.97,-791.89C596.44,-751.91 580.03,-650.12 614,-576 619.04,-565 627.48,-555.1 636.25,-546.93"/>
<polygon fill="grey" stroke="grey" stroke-width="2" points="638.73,-549.41 643.97,-540.2 634.13,-544.13 638.73,-549.41"/>
</g>
<!-- 14&#45;&gt;11 -->
<g id="edge30" class="edge">
<title>14&#45;&gt;11</title>
<path fill="none" stroke="grey" stroke-width="2" d="M607.79,-791.74C607.19,-773.15 608.28,-743.13 619,-720 623.93,-709.37 631.84,-699.49 639.93,-691.21"/>
<polygon fill="grey" stroke="grey" stroke-width="2" points="642.55,-693.55 647.32,-684.09 637.69,-688.5 642.55,-693.55"/>
</g>
<!-- 14&#45;&gt;12 -->
<g id="edge38" class="edge">
<title>14&#45;&gt;12</title>
<path fill="none" stroke="grey" stroke-width="2" d="M623.83,-791.7C631.02,-783.3 639.8,-773.07 647.69,-763.86"/>
<polygon fill="grey" stroke="grey" stroke-width="2" points="650.49,-765.97 654.34,-756.1 645.17,-761.42 650.49,-765.97"/>
</g>
<!-- 27 -->
<g id="node28" class="node">
<title>27</title>
<path fill="none" stroke="#56d8b9" stroke-width="2" stroke-dasharray="5,2" d="M521,-540C521,-540 439,-540 439,-540 433,-540 427,-534 427,-528 427,-528 427,-516 427,-516 427,-510 433,-504 439,-504 439,-504 521,-504 521,-504 527,-504 533,-510 533,-516 533,-516 533,-528 533,-528 533,-534 527,-540 521,-540"/>
<text text-anchor="middle" x="480" y="-519.5" font-family="sans" font-size="10.00">bwa_mem2_index</text>
</g>
<!-- 14&#45;&gt;27 -->
<g id="edge53" class="edge">
<title>14&#45;&gt;27</title>
<path fill="none" stroke="grey" stroke-width="2" d="M601.32,-791.97C579.68,-743.99 518.11,-607.5 491.97,-549.54"/>
<polygon fill="grey" stroke="grey" stroke-width="2" points="495.11,-547.98 487.81,-540.31 488.73,-550.86 495.11,-547.98"/>
</g>
<!-- 15 -->
<g id="node16" class="node">
<title>15</title>
<path fill="none" stroke="#d85656" stroke-width="2" stroke-dasharray="5,2" d="M323,-828C323,-828 259,-828 259,-828 253,-828 247,-822 247,-816 247,-816 247,-804 247,-804 247,-798 253,-792 259,-792 259,-792 323,-792 323,-792 329,-792 335,-798 335,-804 335,-804 335,-816 335,-816 335,-822 329,-828 323,-828"/>
<text text-anchor="middle" x="291" y="-813" font-family="sans" font-size="10.00">create_bin_file</text>
<text text-anchor="middle" x="291" y="-802" font-family="sans" font-size="10.00">bin_id: 3</text>
</g>
<!-- 15&#45;&gt;9 -->
<g id="edge21" class="edge">
<title>15&#45;&gt;9</title>
<path fill="none" stroke="grey" stroke-width="2" d="M304.83,-791.71C339.36,-749.53 433.82,-640.11 534,-576 561.11,-558.66 594.79,-545.42 621.74,-536.51"/>
<polygon fill="grey" stroke="grey" stroke-width="2" points="622.88,-539.82 631.33,-533.43 620.74,-533.16 622.88,-539.82"/>
</g>
<!-- 15&#45;&gt;11 -->
<g id="edge31" class="edge">
<title>15&#45;&gt;11</title>
<path fill="none" stroke="grey" stroke-width="2" d="M326.6,-791.97C366.91,-773.04 434.82,-742.21 495,-720 534.64,-705.37 580.37,-691.56 615,-681.7"/>
<polygon fill="grey" stroke="grey" stroke-width="2" points="616.24,-684.99 624.91,-678.9 614.34,-678.25 616.24,-684.99"/>
</g>
<!-- 15&#45;&gt;12 -->
<g id="edge39" class="edge">
<title>15&#45;&gt;12</title>
<path fill="none" stroke="grey" stroke-width="2" d="M335.11,-794.31C338.1,-793.48 341.09,-792.7 344,-792 439.43,-769.05 553.04,-753.04 617.52,-744.99"/>
<polygon fill="grey" stroke="grey" stroke-width="2" points="618.33,-748.42 627.82,-743.72 617.47,-741.47 618.33,-748.42"/>
</g>
<!-- 31 -->
<g id="node32" class="node">
<title>31</title>
<path fill="none" stroke="#56d8b9" stroke-width="2" stroke-dasharray="5,2" d="M94,-468C94,-468 12,-468 12,-468 6,-468 0,-462 0,-456 0,-456 0,-444 0,-444 0,-438 6,-432 12,-432 12,-432 94,-432 94,-432 100,-432 106,-438 106,-444 106,-444 106,-456 106,-456 106,-462 100,-468 94,-468"/>
<text text-anchor="middle" x="53" y="-447.5" font-family="sans" font-size="10.00">bwa_mem2_index</text>
</g>
<!-- 15&#45;&gt;31 -->
<g id="edge58" class="edge">
<title>15&#45;&gt;31</title>
<path fill="none" stroke="grey" stroke-width="2" d="M246.77,-800.62C183.57,-785.79 75,-748.45 75,-667 75,-667 75,-667 75,-593 75,-552.74 66.26,-506.81 59.79,-478.36"/>
<polygon fill="grey" stroke="grey" stroke-width="2" points="63.14,-477.29 57.45,-468.35 56.32,-478.89 63.14,-477.29"/>
</g>
<!-- 16 -->
<g id="node17" class="node">
<title>16</title>
<path fill="none" stroke="#d85656" stroke-width="2" stroke-dasharray="5,2" d="M964,-828C964,-828 900,-828 900,-828 894,-828 888,-822 888,-816 888,-816 888,-804 888,-804 888,-798 894,-792 900,-792 900,-792 964,-792 964,-792 970,-792 976,-798 976,-804 976,-804 976,-816 976,-816 976,-822 970,-828 964,-828"/>
<text text-anchor="middle" x="932" y="-813" font-family="sans" font-size="10.00">create_bin_file</text>
<text text-anchor="middle" x="932" y="-802" font-family="sans" font-size="10.00">bin_id: 4</text>
</g>
<!-- 16&#45;&gt;9 -->
<g id="edge22" class="edge">
<title>16&#45;&gt;9</title>
<path fill="none" stroke="grey" stroke-width="2" d="M923.59,-791.71C902.59,-749.99 844.09,-642.37 769,-576 753.45,-562.26 733.72,-550.84 715.9,-542.16"/>
<polygon fill="grey" stroke="grey" stroke-width="2" points="717.32,-538.96 706.78,-537.87 714.34,-545.29 717.32,-538.96"/>
</g>
<!-- 16&#45;&gt;11 -->
<g id="edge32" class="edge">
<title>16&#45;&gt;11</title>
<path fill="none" stroke="grey" stroke-width="2" d="M901.34,-791.93C868.83,-773.88 815.94,-744.67 770,-720 750.69,-709.63 729.19,-698.32 711.01,-688.82"/>
<polygon fill="grey" stroke="grey" stroke-width="2" points="712.32,-685.55 701.83,-684.03 709.08,-691.76 712.32,-685.55"/>
</g>
<!-- 16&#45;&gt;12 -->
<g id="edge40" class="edge">
<title>16&#45;&gt;12</title>
<path fill="none" stroke="grey" stroke-width="2" d="M887.82,-794.6C884.84,-793.7 881.88,-792.82 879,-792 825.12,-776.58 762.79,-761.15 720.12,-750.95"/>
<polygon fill="grey" stroke="grey" stroke-width="2" points="720.79,-747.51 710.25,-748.6 719.17,-754.32 720.79,-747.51"/>
</g>
<!-- 35 -->
<g id="node36" class="node">
<title>35</title>
<path fill="none" stroke="#56d8b9" stroke-width="2" stroke-dasharray="5,2" d="M1212,-396C1212,-396 1130,-396 1130,-396 1124,-396 1118,-390 1118,-384 1118,-384 1118,-372 1118,-372 1118,-366 1124,-360 1130,-360 1130,-360 1212,-360 1212,-360 1218,-360 1224,-366 1224,-372 1224,-372 1224,-384 1224,-384 1224,-390 1218,-396 1212,-396"/>
<text text-anchor="middle" x="1171" y="-375.5" font-family="sans" font-size="10.00">bwa_mem2_index</text>
</g>
<!-- 16&#45;&gt;35 -->
<g id="edge63" class="edge">
<title>16&#45;&gt;35</title>
<path fill="none" stroke="grey" stroke-width="2" d="M976.4,-803.63C1032.24,-795.96 1123.66,-780.09 1147,-756 1175.15,-726.95 1166,-707.45 1166,-667 1166,-667 1166,-667 1166,-521 1166,-480.97 1168.01,-434.63 1169.48,-406.07"/>
<polygon fill="grey" stroke="grey" stroke-width="2" points="1172.98,-406.21 1170.01,-396.04 1165.99,-405.84 1172.98,-406.21"/>
</g>
<!-- 17 -->
<g id="node18" class="node">
<title>17</title>
<path fill="none" stroke="#d85656" stroke-width="2" stroke-dasharray="5,2" d="M1155,-828C1155,-828 1091,-828 1091,-828 1085,-828 1079,-822 1079,-816 1079,-816 1079,-804 1079,-804 1079,-798 1085,-792 1091,-792 1091,-792 1155,-792 1155,-792 1161,-792 1167,-798 1167,-804 1167,-804 1167,-816 1167,-816 1167,-822 1161,-828 1155,-828"/>
<text text-anchor="middle" x="1123" y="-813" font-family="sans" font-size="10.00">create_bin_file</text>
<text text-anchor="middle" x="1123" y="-802" font-family="sans" font-size="10.00">bin_id: 5</text>
</g>
<!-- 17&#45;&gt;9 -->
<g id="edge23" class="edge">
<title>17&#45;&gt;9</title>
<path fill="none" stroke="grey" stroke-width="2" d="M1149.58,-791.91C1161.24,-782.81 1173.69,-770.49 1180,-756 1186.39,-741.33 1185.09,-735.17 1180,-720 1154.45,-643.91 1140.38,-616.37 1071,-576 1011.75,-541.53 810.01,-528.83 716.86,-524.73"/>
<polygon fill="grey" stroke="grey" stroke-width="2" points="716.73,-521.22 706.59,-524.29 716.43,-528.22 716.73,-521.22"/>
</g>
<!-- 17&#45;&gt;11 -->
<g id="edge33" class="edge">
<title>17&#45;&gt;11</title>
<path fill="none" stroke="grey" stroke-width="2" d="M1078.64,-795.13C994.88,-768.93 813.7,-712.26 723.01,-683.89"/>
<polygon fill="grey" stroke="grey" stroke-width="2" points="723.79,-680.47 713.2,-680.83 721.7,-687.15 723.79,-680.47"/>
</g>
<!-- 17&#45;&gt;12 -->
<g id="edge41" class="edge">
<title>17&#45;&gt;12</title>
<path fill="none" stroke="grey" stroke-width="2" d="M1078.64,-802.16C993.99,-789.11 809.88,-760.72 720.18,-746.89"/>
<polygon fill="grey" stroke="grey" stroke-width="2" points="720.65,-743.42 710.24,-745.36 719.59,-750.34 720.65,-743.42"/>
</g>
<!-- 39 -->
<g id="node40" class="node">
<title>39</title>
<path fill="none" stroke="#56d8b9" stroke-width="2" stroke-dasharray="5,2" d="M1326,-684C1326,-684 1244,-684 1244,-684 1238,-684 1232,-678 1232,-672 1232,-672 1232,-660 1232,-660 1232,-654 1238,-648 1244,-648 1244,-648 1326,-648 1326,-648 1332,-648 1338,-654 1338,-660 1338,-660 1338,-672 1338,-672 1338,-678 1332,-684 1326,-684"/>
<text text-anchor="middle" x="1285" y="-663.5" font-family="sans" font-size="10.00">bwa_mem2_index</text>
</g>
<!-- 17&#45;&gt;39 -->
<g id="edge68" class="edge">
<title>17&#45;&gt;39</title>
<path fill="none" stroke="grey" stroke-width="2" d="M1161.88,-791.94C1180.07,-782.84 1201.35,-770.52 1218,-756 1239.01,-737.67 1257.61,-711.76 1269.84,-692.62"/>
<polygon fill="grey" stroke="grey" stroke-width="2" points="1272.84,-694.43 1275.16,-684.09 1266.9,-690.73 1272.84,-694.43"/>
</g>
<!-- 18 -->
<g id="node19" class="node">
<title>18</title>
<path fill="none" stroke="#d85656" stroke-width="2" stroke-dasharray="5,2" d="M752,-828C752,-828 688,-828 688,-828 682,-828 676,-822 676,-816 676,-816 676,-804 676,-804 676,-798 682,-792 688,-792 688,-792 752,-792 752,-792 758,-792 764,-798 764,-804 764,-804 764,-816 764,-816 764,-822 758,-828 752,-828"/>
<text text-anchor="middle" x="720" y="-813" font-family="sans" font-size="10.00">create_bin_file</text>
<text text-anchor="middle" x="720" y="-802" font-family="sans" font-size="10.00">bin_id: 6</text>
</g>
<!-- 18&#45;&gt;9 -->
<g id="edge24" class="edge">
<title>18&#45;&gt;9</title>
<path fill="none" stroke="grey" stroke-width="2" d="M727.07,-791.67C730.84,-781.47 735.09,-768.22 737,-756 745.28,-703.05 738.5,-606.25 724,-576 718.72,-564.99 710.13,-555.05 701.29,-546.83"/>
<polygon fill="grey" stroke="grey" stroke-width="2" points="703.37,-544 693.54,-540.06 698.77,-549.28 703.37,-544"/>
</g>
<!-- 18&#45;&gt;11 -->
<g id="edge34" class="edge">
<title>18&#45;&gt;11</title>
<path fill="none" stroke="grey" stroke-width="2" d="M723.38,-791.88C726.23,-773.42 728.49,-743.5 719,-720 714.65,-709.22 706.98,-699.36 698.94,-691.13"/>
<polygon fill="grey" stroke="grey" stroke-width="2" points="701.18,-688.43 691.53,-684.06 696.35,-693.5 701.18,-688.43"/>
</g>
<!-- 18&#45;&gt;12 -->
<g id="edge42" class="edge">
<title>18&#45;&gt;12</title>
<path fill="none" stroke="grey" stroke-width="2" d="M707.39,-791.7C701.4,-783.47 694.12,-773.48 687.52,-764.42"/>
<polygon fill="grey" stroke="grey" stroke-width="2" points="690.18,-762.13 681.46,-756.1 684.52,-766.25 690.18,-762.13"/>
</g>
<!-- 43 -->
<g id="node44" class="node">
<title>43</title>
<path fill="none" stroke="#56d8b9" stroke-width="2" stroke-dasharray="5,2" d="M1050,-612C1050,-612 968,-612 968,-612 962,-612 956,-606 956,-600 956,-600 956,-588 956,-588 956,-582 962,-576 968,-576 968,-576 1050,-576 1050,-576 1056,-576 1062,-582 1062,-588 1062,-588 1062,-600 1062,-600 1062,-606 1056,-612 1050,-612"/>
<text text-anchor="middle" x="1009" y="-591.5" font-family="sans" font-size="10.00">bwa_mem2_index</text>
</g>
<!-- 18&#45;&gt;43 -->
<g id="edge73" class="edge">
<title>18&#45;&gt;43</title>
<path fill="none" stroke="grey" stroke-width="2" d="M764.31,-794.15C803.98,-780.65 857.22,-761.96 866,-756 920.8,-718.8 968.24,-655.98 992.26,-620.82"/>
<polygon fill="grey" stroke="grey" stroke-width="2" points="995.45,-622.34 998.13,-612.09 989.64,-618.44 995.45,-622.34"/>
</g>
<!-- 19 -->
<g id="node20" class="node">
<title>19</title>
<path fill="none" stroke="#d85656" stroke-width="2" stroke-dasharray="5,2" d="M858,-828C858,-828 794,-828 794,-828 788,-828 782,-822 782,-816 782,-816 782,-804 782,-804 782,-798 788,-792 794,-792 794,-792 858,-792 858,-792 864,-792 870,-798 870,-804 870,-804 870,-816 870,-816 870,-822 864,-828 858,-828"/>
<text text-anchor="middle" x="826" y="-813" font-family="sans" font-size="10.00">create_bin_file</text>
<text text-anchor="middle" x="826" y="-802" font-family="sans" font-size="10.00">bin_id: 7</text>
</g>
<!-- 19&#45;&gt;9 -->
<g id="edge25" class="edge">
<title>19&#45;&gt;9</title>
<path fill="none" stroke="grey" stroke-width="2" d="M823.5,-791.82C816.81,-750.82 795.33,-645.45 743,-576 734.12,-564.22 721.88,-553.98 709.91,-545.73"/>
<polygon fill="grey" stroke="grey" stroke-width="2" points="711.57,-542.64 701.29,-540.08 707.73,-548.49 711.57,-542.64"/>
</g>
<!-- 19&#45;&gt;11 -->
<g id="edge35" class="edge">
<title>19&#45;&gt;11</title>
<path fill="none" stroke="grey" stroke-width="2" d="M810.18,-791.97C792.83,-773.58 763.85,-743.73 737,-720 725.54,-709.87 712.39,-699.38 700.73,-690.44"/>
<polygon fill="grey" stroke="grey" stroke-width="2" points="702.63,-687.48 692.55,-684.22 698.39,-693.06 702.63,-687.48"/>
</g>
<!-- 19&#45;&gt;12 -->
<g id="edge43" class="edge">
<title>19&#45;&gt;12</title>
<path fill="none" stroke="grey" stroke-width="2" d="M787.59,-791.88C766.13,-782.31 739.2,-770.3 716.43,-760.15"/>
<polygon fill="grey" stroke="grey" stroke-width="2" points="717.84,-756.94 707.28,-756.07 714.99,-763.34 717.84,-756.94"/>
</g>
<!-- 47 -->
<g id="node48" class="node">
<title>47</title>
<path fill="none" stroke="#56d8b9" stroke-width="2" stroke-dasharray="5,2" d="M1126,-756C1126,-756 1044,-756 1044,-756 1038,-756 1032,-750 1032,-744 1032,-744 1032,-732 1032,-732 1032,-726 1038,-720 1044,-720 1044,-720 1126,-720 1126,-720 1132,-720 1138,-726 1138,-732 1138,-732 1138,-744 1138,-744 1138,-750 1132,-756 1126,-756"/>
<text text-anchor="middle" x="1085" y="-735.5" font-family="sans" font-size="10.00">bwa_mem2_index</text>
</g>
<!-- 19&#45;&gt;47 -->
<g id="edge78" class="edge">
<title>19&#45;&gt;47</title>
<path fill="none" stroke="grey" stroke-width="2" d="M870.19,-794.61C873.16,-793.71 876.12,-792.83 879,-792 892.89,-787.99 966.87,-769.05 1022.23,-754.95"/>
<polygon fill="grey" stroke="grey" stroke-width="2" points="1023.15,-758.33 1031.98,-752.47 1021.42,-751.55 1023.15,-758.33"/>
</g>
<!-- 20 -->
<g id="node21" class="node">
<title>20</title>
<path fill="none" stroke="#b6d856" stroke-width="2" stroke-dasharray="5,2" d="M517,-180C517,-180 455,-180 455,-180 449,-180 443,-174 443,-168 443,-168 443,-156 443,-156 443,-150 449,-144 455,-144 455,-144 517,-144 517,-144 523,-144 529,-150 529,-156 529,-156 529,-168 529,-168 529,-174 523,-180 517,-180"/>
<text text-anchor="middle" x="486" y="-159.5" font-family="sans" font-size="10.00">samtools_sort</text>
</g>
<!-- 20&#45;&gt;1 -->
<g id="edge3" class="edge">
<title>20&#45;&gt;1</title>
<path fill="none" stroke="grey" stroke-width="2" d="M525.39,-143.88C547.39,-134.31 575.01,-122.3 598.36,-112.15"/>
<polygon fill="grey" stroke="grey" stroke-width="2" points="599.97,-115.27 607.74,-108.07 597.18,-108.85 599.97,-115.27"/>
</g>
<!-- 21 -->
<g id="node22" class="node">
<title>21</title>
<path fill="none" stroke="#56d86b" stroke-width="2" stroke-dasharray="5,2" d="M510,-252C510,-252 444,-252 444,-252 438,-252 432,-246 432,-240 432,-240 432,-228 432,-228 432,-222 438,-216 444,-216 444,-216 510,-216 510,-216 516,-216 522,-222 522,-228 522,-228 522,-240 522,-240 522,-246 516,-252 510,-252"/>
<text text-anchor="middle" x="477" y="-231.5" font-family="sans" font-size="10.00">samtools_view</text>
</g>
<!-- 21&#45;&gt;20 -->
<g id="edge44" class="edge">
<title>21&#45;&gt;20</title>
<path fill="none" stroke="grey" stroke-width="2" d="M479.22,-215.7C480.22,-207.98 481.41,-198.71 482.51,-190.11"/>
<polygon fill="grey" stroke="grey" stroke-width="2" points="486,-190.47 483.8,-180.1 479.05,-189.58 486,-190.47"/>
</g>
<!-- 22&#45;&gt;21 -->
<g id="edge45" class="edge">
<title>22&#45;&gt;21</title>
<path fill="none" stroke="grey" stroke-width="2" d="M469.47,-287.7C470.57,-279.98 471.9,-270.71 473.13,-262.11"/>
<polygon fill="grey" stroke="grey" stroke-width="2" points="476.61,-262.5 474.56,-252.1 469.68,-261.51 476.61,-262.5"/>
</g>
<!-- 23&#45;&gt;22 -->
<g id="edge46" class="edge">
<title>23&#45;&gt;22</title>
<path fill="none" stroke="grey" stroke-width="2" d="M230.01,-575.97C272.63,-527.6 394.54,-389.23 444.86,-332.12"/>
<polygon fill="grey" stroke="grey" stroke-width="2" points="447.77,-334.12 451.75,-324.31 442.51,-329.5 447.77,-334.12"/>
</g>
<!-- 24 -->
<g id="node25" class="node">
<title>24</title>
<path fill="none" stroke="#b6d856" stroke-width="2" stroke-dasharray="5,2" d="M626,-180C626,-180 564,-180 564,-180 558,-180 552,-174 552,-168 552,-168 552,-156 552,-156 552,-150 558,-144 564,-144 564,-144 626,-144 626,-144 632,-144 638,-150 638,-156 638,-156 638,-168 638,-168 638,-174 632,-180 626,-180"/>
<text text-anchor="middle" x="595" y="-159.5" font-family="sans" font-size="10.00">samtools_sort</text>
</g>
<!-- 24&#45;&gt;1 -->
<g id="edge4" class="edge">
<title>24&#45;&gt;1</title>
<path fill="none" stroke="grey" stroke-width="2" d="M607.85,-143.7C614.03,-135.39 621.54,-125.28 628.32,-116.14"/>
<polygon fill="grey" stroke="grey" stroke-width="2" points="631.14,-118.22 634.29,-108.1 625.52,-114.04 631.14,-118.22"/>
</g>
<!-- 25 -->
<g id="node26" class="node">
<title>25</title>
<path fill="none" stroke="#56d86b" stroke-width="2" stroke-dasharray="5,2" d="M625,-252C625,-252 559,-252 559,-252 553,-252 547,-246 547,-240 547,-240 547,-228 547,-228 547,-222 553,-216 559,-216 559,-216 625,-216 625,-216 631,-216 637,-222 637,-228 637,-228 637,-240 637,-240 637,-246 631,-252 625,-252"/>
<text text-anchor="middle" x="592" y="-231.5" font-family="sans" font-size="10.00">samtools_view</text>
</g>
<!-- 25&#45;&gt;24 -->
<g id="edge49" class="edge">
<title>25&#45;&gt;24</title>
<path fill="none" stroke="grey" stroke-width="2" d="M592.74,-215.7C593.07,-207.98 593.47,-198.71 593.84,-190.11"/>
<polygon fill="grey" stroke="grey" stroke-width="2" points="597.34,-190.25 594.27,-180.1 590.34,-189.95 597.34,-190.25"/>
</g>
<!-- 26&#45;&gt;25 -->
<g id="edge50" class="edge">
<title>26&#45;&gt;25</title>
<path fill="none" stroke="grey" stroke-width="2" d="M589.74,-287.7C590.07,-279.98 590.47,-270.71 590.84,-262.11"/>
<polygon fill="grey" stroke="grey" stroke-width="2" points="594.34,-262.25 591.27,-252.1 587.34,-261.95 594.34,-262.25"/>
</g>
<!-- 27&#45;&gt;26 -->
<g id="edge51" class="edge">
<title>27&#45;&gt;26</title>
<path fill="none" stroke="grey" stroke-width="2" d="M488.74,-503.85C507.75,-466.52 552.99,-377.69 575.63,-333.26"/>
<polygon fill="grey" stroke="grey" stroke-width="2" points="578.8,-334.73 580.22,-324.23 572.57,-331.55 578.8,-334.73"/>
</g>
<!-- 28 -->
<g id="node29" class="node">
<title>28</title>
<path fill="none" stroke="#b6d856" stroke-width="2" stroke-dasharray="5,2" d="M288,-180C288,-180 226,-180 226,-180 220,-180 214,-174 214,-168 214,-168 214,-156 214,-156 214,-150 220,-144 226,-144 226,-144 288,-144 288,-144 294,-144 300,-150 300,-156 300,-156 300,-168 300,-168 300,-174 294,-180 288,-180"/>
<text text-anchor="middle" x="257" y="-159.5" font-family="sans" font-size="10.00">samtools_sort</text>
</g>
<!-- 28&#45;&gt;1 -->
<g id="edge5" class="edge">
<title>28&#45;&gt;1</title>
<path fill="none" stroke="grey" stroke-width="2" d="M300.24,-148.71C306.83,-147.01 313.58,-145.38 320,-144 412.86,-124 522.01,-107.75 587.78,-98.73"/>
<polygon fill="grey" stroke="grey" stroke-width="2" points="588.52,-102.16 597.95,-97.34 587.57,-95.23 588.52,-102.16"/>
</g>
<!-- 29 -->
<g id="node30" class="node">
<title>29</title>
<path fill="none" stroke="#56d86b" stroke-width="2" stroke-dasharray="5,2" d="M263,-252C263,-252 197,-252 197,-252 191,-252 185,-246 185,-240 185,-240 185,-228 185,-228 185,-222 191,-216 197,-216 197,-216 263,-216 263,-216 269,-216 275,-222 275,-228 275,-228 275,-240 275,-240 275,-246 269,-252 263,-252"/>
<text text-anchor="middle" x="230" y="-231.5" font-family="sans" font-size="10.00">samtools_view</text>
</g>
<!-- 29&#45;&gt;28 -->
<g id="edge54" class="edge">
<title>29&#45;&gt;28</title>
<path fill="none" stroke="grey" stroke-width="2" d="M236.67,-215.7C239.71,-207.81 243.38,-198.3 246.76,-189.55"/>
<polygon fill="grey" stroke="grey" stroke-width="2" points="250.07,-190.69 250.4,-180.1 243.54,-188.17 250.07,-190.69"/>
</g>
<!-- 30&#45;&gt;29 -->
<g id="edge55" class="edge">
<title>30&#45;&gt;29</title>
<path fill="none" stroke="grey" stroke-width="2" d="M224.73,-287.7C225.5,-279.98 226.43,-270.71 227.29,-262.11"/>
<polygon fill="grey" stroke="grey" stroke-width="2" points="230.78,-262.4 228.29,-252.1 223.81,-261.71 230.78,-262.4"/>
</g>
<!-- 31&#45;&gt;30 -->
<g id="edge56" class="edge">
<title>31&#45;&gt;30</title>
<path fill="none" stroke="grey" stroke-width="2" d="M62.71,-431.76C74.32,-412.35 95.3,-380.82 120,-360 134.86,-347.48 153.17,-336.86 170.21,-328.49"/>
<polygon fill="grey" stroke="grey" stroke-width="2" points="171.98,-331.52 179.52,-324.07 168.98,-325.2 171.98,-331.52"/>
</g>
<!-- 32 -->
<g id="node33" class="node">
<title>32</title>
<path fill="none" stroke="#b6d856" stroke-width="2" stroke-dasharray="5,2" d="M966,-180C966,-180 904,-180 904,-180 898,-180 892,-174 892,-168 892,-168 892,-156 892,-156 892,-150 898,-144 904,-144 904,-144 966,-144 966,-144 972,-144 978,-150 978,-156 978,-156 978,-168 978,-168 978,-174 972,-180 966,-180"/>
<text text-anchor="middle" x="935" y="-159.5" font-family="sans" font-size="10.00">samtools_sort</text>
</g>
<!-- 32&#45;&gt;1 -->
<g id="edge6" class="edge">
<title>32&#45;&gt;1</title>
<path fill="none" stroke="grey" stroke-width="2" d="M891.68,-149.53C884.45,-147.65 877.02,-145.75 870,-144 814.54,-130.16 751.11,-115.17 706.12,-104.67"/>
<polygon fill="grey" stroke="grey" stroke-width="2" points="706.77,-101.23 696.24,-102.37 705.18,-108.04 706.77,-101.23"/>
</g>
<!-- 33 -->
<g id="node34" class="node">
<title>33</title>
<path fill="none" stroke="#56d86b" stroke-width="2" stroke-dasharray="5,2" d="M978,-252C978,-252 912,-252 912,-252 906,-252 900,-246 900,-240 900,-240 900,-228 900,-228 900,-222 906,-216 912,-216 912,-216 978,-216 978,-216 984,-216 990,-222 990,-228 990,-228 990,-240 990,-240 990,-246 984,-252 978,-252"/>
<text text-anchor="middle" x="945" y="-231.5" font-family="sans" font-size="10.00">samtools_view</text>
</g>
<!-- 33&#45;&gt;32 -->
<g id="edge59" class="edge">
<title>33&#45;&gt;32</title>
<path fill="none" stroke="grey" stroke-width="2" d="M942.53,-215.7C941.43,-207.98 940.1,-198.71 938.87,-190.11"/>
<polygon fill="grey" stroke="grey" stroke-width="2" points="942.32,-189.51 937.44,-180.1 935.39,-190.5 942.32,-189.51"/>
</g>
<!-- 34&#45;&gt;33 -->
<g id="edge60" class="edge">
<title>34&#45;&gt;33</title>
<path fill="none" stroke="grey" stroke-width="2" d="M952.53,-287.7C951.43,-279.98 950.1,-270.71 948.87,-262.11"/>
<polygon fill="grey" stroke="grey" stroke-width="2" points="952.32,-261.51 947.44,-252.1 945.39,-262.5 952.32,-261.51"/>
</g>
<!-- 35&#45;&gt;34 -->
<g id="edge61" class="edge">
<title>35&#45;&gt;34</title>
<path fill="none" stroke="grey" stroke-width="2" d="M1118.44,-359.97C1087.77,-350.03 1048.92,-337.44 1016.79,-327.02"/>
<polygon fill="grey" stroke="grey" stroke-width="2" points="1017.64,-323.62 1007.05,-323.87 1015.48,-330.28 1017.64,-323.62"/>
</g>
<!-- 36 -->
<g id="node37" class="node">
<title>36</title>
<path fill="none" stroke="#b6d856" stroke-width="2" stroke-dasharray="5,2" d="M1085,-180C1085,-180 1023,-180 1023,-180 1017,-180 1011,-174 1011,-168 1011,-168 1011,-156 1011,-156 1011,-150 1017,-144 1023,-144 1023,-144 1085,-144 1085,-144 1091,-144 1097,-150 1097,-156 1097,-156 1097,-168 1097,-168 1097,-174 1091,-180 1085,-180"/>
<text text-anchor="middle" x="1054" y="-159.5" font-family="sans" font-size="10.00">samtools_sort</text>
</g>
<!-- 36&#45;&gt;1 -->
<g id="edge7" class="edge">
<title>36&#45;&gt;1</title>
<path fill="none" stroke="grey" stroke-width="2" d="M1010.89,-149.43C1002.97,-147.48 994.76,-145.59 987,-144 889.29,-124.03 774.44,-107.57 706.35,-98.53"/>
<polygon fill="grey" stroke="grey" stroke-width="2" points="706.61,-95.04 696.24,-97.2 705.7,-101.98 706.61,-95.04"/>
</g>
<!-- 37 -->
<g id="node38" class="node">
<title>37</title>
<path fill="none" stroke="#56d86b" stroke-width="2" stroke-dasharray="5,2" d="M1099,-252C1099,-252 1033,-252 1033,-252 1027,-252 1021,-246 1021,-240 1021,-240 1021,-228 1021,-228 1021,-222 1027,-216 1033,-216 1033,-216 1099,-216 1099,-216 1105,-216 1111,-222 1111,-228 1111,-228 1111,-240 1111,-240 1111,-246 1105,-252 1099,-252"/>
<text text-anchor="middle" x="1066" y="-231.5" font-family="sans" font-size="10.00">samtools_view</text>
</g>
<!-- 37&#45;&gt;36 -->
<g id="edge64" class="edge">
<title>37&#45;&gt;36</title>
<path fill="none" stroke="grey" stroke-width="2" d="M1063.03,-215.7C1061.71,-207.98 1060.12,-198.71 1058.65,-190.11"/>
<polygon fill="grey" stroke="grey" stroke-width="2" points="1062.07,-189.37 1056.93,-180.1 1055.17,-190.55 1062.07,-189.37"/>
</g>
<!-- 38&#45;&gt;37 -->
<g id="edge65" class="edge">
<title>38&#45;&gt;37</title>
<path fill="none" stroke="grey" stroke-width="2" d="M1074.28,-287.7C1073.07,-279.98 1071.61,-270.71 1070.26,-262.11"/>
<polygon fill="grey" stroke="grey" stroke-width="2" points="1073.7,-261.44 1068.69,-252.1 1066.78,-262.53 1073.7,-261.44"/>
</g>
<!-- 39&#45;&gt;38 -->
<g id="edge66" class="edge">
<title>39&#45;&gt;38</title>
<path fill="none" stroke="grey" stroke-width="2" d="M1281.56,-647.59C1276.59,-620.9 1268,-568.19 1268,-523 1268,-523 1268,-523 1268,-449 1268,-406.5 1263.76,-389.34 1233,-360 1207.6,-335.77 1170.7,-322.59 1139.17,-315.44"/>
<polygon fill="grey" stroke="grey" stroke-width="2" points="1139.65,-311.96 1129.14,-313.32 1138.2,-318.81 1139.65,-311.96"/>
</g>
<!-- 40 -->
<g id="node41" class="node">
<title>40</title>
<path fill="none" stroke="#b6d856" stroke-width="2" stroke-dasharray="5,2" d="M735,-180C735,-180 673,-180 673,-180 667,-180 661,-174 661,-168 661,-168 661,-156 661,-156 661,-150 667,-144 673,-144 673,-144 735,-144 735,-144 741,-144 747,-150 747,-156 747,-156 747,-168 747,-168 747,-174 741,-180 735,-180"/>
<text text-anchor="middle" x="704" y="-159.5" font-family="sans" font-size="10.00">samtools_sort</text>
</g>
<!-- 40&#45;&gt;1 -->
<g id="edge8" class="edge">
<title>40&#45;&gt;1</title>
<path fill="none" stroke="grey" stroke-width="2" d="M689.91,-143.7C683.08,-135.3 674.74,-125.07 667.24,-115.86"/>
<polygon fill="grey" stroke="grey" stroke-width="2" points="669.96,-113.65 660.93,-108.1 664.53,-118.07 669.96,-113.65"/>
</g>
<!-- 41 -->
<g id="node42" class="node">
<title>41</title>
<path fill="none" stroke="#56d86b" stroke-width="2" stroke-dasharray="5,2" d="M740,-252C740,-252 674,-252 674,-252 668,-252 662,-246 662,-240 662,-240 662,-228 662,-228 662,-222 668,-216 674,-216 674,-216 740,-216 740,-216 746,-216 752,-222 752,-228 752,-228 752,-240 752,-240 752,-246 746,-252 740,-252"/>
<text text-anchor="middle" x="707" y="-231.5" font-family="sans" font-size="10.00">samtools_view</text>
</g>
<!-- 41&#45;&gt;40 -->
<g id="edge69" class="edge">
<title>41&#45;&gt;40</title>
<path fill="none" stroke="grey" stroke-width="2" d="M706.26,-215.7C705.93,-207.98 705.53,-198.71 705.16,-190.11"/>
<polygon fill="grey" stroke="grey" stroke-width="2" points="708.66,-189.95 704.73,-180.1 701.66,-190.25 708.66,-189.95"/>
</g>
<!-- 42&#45;&gt;41 -->
<g id="edge70" class="edge">
<title>42&#45;&gt;41</title>
<path fill="none" stroke="grey" stroke-width="2" d="M710.01,-287.7C709.57,-279.98 709.04,-270.71 708.55,-262.11"/>
<polygon fill="grey" stroke="grey" stroke-width="2" points="712.04,-261.89 707.98,-252.1 705.05,-262.29 712.04,-261.89"/>
</g>
<!-- 43&#45;&gt;42 -->
<g id="edge71" class="edge">
<title>43&#45;&gt;42</title>
<path fill="none" stroke="grey" stroke-width="2" d="M991.25,-575.97C940.65,-527.4 795.5,-388.1 736.45,-331.42"/>
<polygon fill="grey" stroke="grey" stroke-width="2" points="738.67,-328.71 729.03,-324.31 733.82,-333.76 738.67,-328.71"/>
</g>
<!-- 44 -->
<g id="node45" class="node">
<title>44</title>
<path fill="none" stroke="#b6d856" stroke-width="2" stroke-dasharray="5,2" d="M849,-180C849,-180 787,-180 787,-180 781,-180 775,-174 775,-168 775,-168 775,-156 775,-156 775,-150 781,-144 787,-144 787,-144 849,-144 849,-144 855,-144 861,-150 861,-156 861,-156 861,-168 861,-168 861,-174 855,-180 849,-180"/>
<text text-anchor="middle" x="818" y="-159.5" font-family="sans" font-size="10.00">samtools_sort</text>
</g>
<!-- 44&#45;&gt;1 -->
<g id="edge9" class="edge">
<title>44&#45;&gt;1</title>
<path fill="none" stroke="grey" stroke-width="2" d="M776.17,-143.88C752.58,-134.22 722.94,-122.09 698,-111.88"/>
<polygon fill="grey" stroke="grey" stroke-width="2" points="699.28,-108.62 688.7,-108.07 696.62,-115.1 699.28,-108.62"/>
</g>
<!-- 45 -->
<g id="node46" class="node">
<title>45</title>
<path fill="none" stroke="#56d86b" stroke-width="2" stroke-dasharray="5,2" d="M858,-252C858,-252 792,-252 792,-252 786,-252 780,-246 780,-240 780,-240 780,-228 780,-228 780,-222 786,-216 792,-216 792,-216 858,-216 858,-216 864,-216 870,-222 870,-228 870,-228 870,-240 870,-240 870,-246 864,-252 858,-252"/>
<text text-anchor="middle" x="825" y="-231.5" font-family="sans" font-size="10.00">samtools_view</text>
</g>
<!-- 45&#45;&gt;44 -->
<g id="edge74" class="edge">
<title>45&#45;&gt;44</title>
<path fill="none" stroke="grey" stroke-width="2" d="M823.27,-215.7C822.5,-207.98 821.57,-198.71 820.71,-190.11"/>
<polygon fill="grey" stroke="grey" stroke-width="2" points="824.19,-189.71 819.71,-180.1 817.22,-190.4 824.19,-189.71"/>
</g>
<!-- 46&#45;&gt;45 -->
<g id="edge75" class="edge">
<title>46&#45;&gt;45</title>
<path fill="none" stroke="grey" stroke-width="2" d="M831.02,-287.7C830.14,-279.98 829.08,-270.71 828.1,-262.11"/>
<polygon fill="grey" stroke="grey" stroke-width="2" points="831.57,-261.64 826.95,-252.1 824.61,-262.44 831.57,-261.64"/>
</g>
<!-- 47&#45;&gt;46 -->
<g id="edge76" class="edge">
<title>47&#45;&gt;46</title>
<path fill="none" stroke="grey" stroke-width="2" d="M1085.99,-719.96C1087.44,-693.31 1090,-640.14 1090,-595 1090,-595 1090,-595 1090,-449 1090,-404.51 970.54,-354.68 894.51,-327.47"/>
<polygon fill="grey" stroke="grey" stroke-width="2" points="895.6,-324.15 885.01,-324.11 893.27,-330.74 895.6,-324.15"/>
</g>
</g>
</svg>
