<?xml version="1.0" encoding="UTF-8" standalone="no"?>
<!DOCTYPE svg PUBLIC "-//W3C//DTD SVG 1.1//EN"
 "http://www.w3.org/Graphics/SVG/1.1/DTD/svg11.dtd">
<!-- Generated by graphviz version 6.0.1 (20220911.2005)
 -->
<!-- Title: snakemake_dag Pages: 1 -->
<svg width="653pt" height="620pt"
 viewBox="0.00 0.00 653.00 620.00" xmlns="http://www.w3.org/2000/svg" xmlns:xlink="http://www.w3.org/1999/xlink">
<g id="graph0" class="graph" transform="scale(1 1) rotate(0) translate(4 616)">
<title>snakemake_dag</title>
<polygon fill="white" stroke="none" points="-4,4 -4,-616 649,-616 649,4 -4,4"/>
<!-- 0 -->
<g id="node1" class="node">
<title>0</title>
<path fill="none" stroke="#d88d56" stroke-width="2" d="M345,-36C345,-36 315,-36 315,-36 309,-36 303,-30 303,-24 303,-24 303,-12 303,-12 303,-6 309,0 315,0 315,0 345,0 345,0 351,0 357,-6 357,-12 357,-12 357,-24 357,-24 357,-30 351,-36 345,-36"/>
<text text-anchor="middle" x="330" y="-15.5" font-family="sans" font-size="10.00">all</text>
</g>
<!-- 1 -->
<g id="node2" class="node">
<title>1</title>
<path fill="none" stroke="#59d856" stroke-width="2" d="M431,-108C431,-108 351,-108 351,-108 345,-108 339,-102 339,-96 339,-96 339,-84 339,-84 339,-78 345,-72 351,-72 351,-72 431,-72 431,-72 437,-72 443,-78 443,-84 443,-84 443,-96 443,-96 443,-102 437,-108 431,-108"/>
<text text-anchor="middle" x="391" y="-87.5" font-family="sans" font-size="10.00">bwa_mem2_mem</text>
</g>
<!-- 1&#45;&gt;0 -->
<g id="edge1" class="edge">
<title>1&#45;&gt;0</title>
<path fill="none" stroke="grey" stroke-width="2" d="M375.92,-71.7C368.61,-63.3 359.69,-53.07 351.66,-43.86"/>
<polygon fill="grey" stroke="grey" stroke-width="2" points="354.11,-41.34 344.91,-36.1 348.84,-45.94 354.11,-41.34"/>
</g>
<!-- 2 -->
<g id="node3" class="node">
<title>2</title>
<path fill="none" stroke="#56c1d8" stroke-width="2" d="M543,-468C543,-468 461,-468 461,-468 455,-468 449,-462 449,-456 449,-456 449,-444 449,-444 449,-438 455,-432 461,-432 461,-432 543,-432 543,-432 549,-432 555,-438 555,-444 555,-444 555,-456 555,-456 555,-462 549,-468 543,-468"/>
<text text-anchor="middle" x="502" y="-447.5" font-family="sans" font-size="10.00">bwa_mem2_index</text>
</g>
<!-- 2&#45;&gt;1 -->
<g id="edge5" class="edge">
<title>2&#45;&gt;1</title>
<path fill="none" stroke="grey" stroke-width="2" d="M497.75,-431.63C491.61,-404.99 481,-352.36 481,-307 481,-307 481,-307 481,-233 481,-185.71 444.96,-141.41 418.49,-115.25"/>
<polygon fill="grey" stroke="grey" stroke-width="2" points="420.62,-112.44 410.97,-108.05 415.77,-117.49 420.62,-112.44"/>
</g>
<!-- 3 -->
<g id="node4" class="node">
<title>3</title>
<path fill="none" stroke="#d85656" stroke-width="2" d="M471,-612C471,-612 407,-612 407,-612 401,-612 395,-606 395,-600 395,-600 395,-588 395,-588 395,-582 401,-576 407,-576 407,-576 471,-576 471,-576 477,-576 483,-582 483,-588 483,-588 483,-600 483,-600 483,-606 477,-612 471,-612"/>
<text text-anchor="middle" x="439" y="-597" font-family="sans" font-size="10.00">create_bin_file</text>
<text text-anchor="middle" x="439" y="-586" font-family="sans" font-size="10.00">bin_id: 0</text>
</g>
<!-- 3&#45;&gt;2 -->
<g id="edge7" class="edge">
<title>3&#45;&gt;2</title>
<path fill="none" stroke="grey" stroke-width="2" d="M453.21,-575.74C460.83,-565.79 469.89,-552.75 476,-540 485.48,-520.22 492.23,-496.28 496.48,-478.22"/>
<polygon fill="grey" stroke="grey" stroke-width="2" points="499.92,-478.86 498.69,-468.33 493.09,-477.33 499.92,-478.86"/>
</g>
<!-- 6 -->
<g id="node7" class="node">
<title>6</title>
<path fill="none" stroke="#88d856" stroke-width="2" d="M372.5,-324C372.5,-324 321.5,-324 321.5,-324 315.5,-324 309.5,-318 309.5,-312 309.5,-312 309.5,-300 309.5,-300 309.5,-294 315.5,-288 321.5,-288 321.5,-288 372.5,-288 372.5,-288 378.5,-288 384.5,-294 384.5,-300 384.5,-300 384.5,-312 384.5,-312 384.5,-318 378.5,-324 372.5,-324"/>
<text text-anchor="middle" x="347" y="-303.5" font-family="sans" font-size="10.00">raptor_build</text>
</g>
<!-- 3&#45;&gt;6 -->
<g id="edge11" class="edge">
<title>3&#45;&gt;6</title>
<path fill="none" stroke="grey" stroke-width="2" d="M439.98,-575.71C441.5,-535.34 440.93,-432.77 402,-360 396.19,-349.15 387.37,-339.2 378.48,-330.92"/>
<polygon fill="grey" stroke="grey" stroke-width="2" points="380.54,-328.08 370.72,-324.1 375.92,-333.33 380.54,-328.08"/>
</g>
<!-- 8 -->
<g id="node9" class="node">
<title>8</title>
<path fill="none" stroke="#bed856" stroke-width="2" d="M380,-468C380,-468 316,-468 316,-468 310,-468 304,-462 304,-456 304,-456 304,-444 304,-444 304,-438 310,-432 316,-432 316,-432 380,-432 380,-432 386,-432 392,-438 392,-444 392,-444 392,-456 392,-456 392,-462 386,-468 380,-468"/>
<text text-anchor="middle" x="348" y="-447.5" font-family="sans" font-size="10.00">chopper_count</text>
</g>
<!-- 3&#45;&gt;8 -->
<g id="edge17" class="edge">
<title>3&#45;&gt;8</title>
<path fill="none" stroke="grey" stroke-width="2" d="M434.95,-575.83C429.97,-557.06 420.26,-526.63 405,-504 397.8,-493.32 388.06,-483.25 378.67,-474.81"/>
<polygon fill="grey" stroke="grey" stroke-width="2" points="380.78,-472.01 370.93,-468.13 376.21,-477.31 380.78,-472.01"/>
</g>
<!-- 9 -->
<g id="node10" class="node">
<title>9</title>
<path fill="none" stroke="#568ad8" stroke-width="2" d="M384,-540C384,-540 326,-540 326,-540 320,-540 314,-534 314,-528 314,-528 314,-516 314,-516 314,-510 320,-504 326,-504 326,-504 384,-504 384,-504 390,-504 396,-510 396,-516 396,-516 396,-528 396,-528 396,-534 390,-540 384,-540"/>
<text text-anchor="middle" x="355" y="-519.5" font-family="sans" font-size="10.00">write_bin_list</text>
</g>
<!-- 3&#45;&gt;9 -->
<g id="edge21" class="edge">
<title>3&#45;&gt;9</title>
<path fill="none" stroke="grey" stroke-width="2" d="M418.24,-575.7C407.76,-566.97 394.89,-556.24 383.5,-546.75"/>
<polygon fill="grey" stroke="grey" stroke-width="2" points="385.45,-543.82 375.53,-540.1 380.97,-549.19 385.45,-543.82"/>
</g>
<!-- 4 -->
<g id="node5" class="node">
<title>4</title>
<path fill="none" stroke="#56d8c1" stroke-width="2" d="M385,-180C385,-180 309,-180 309,-180 303,-180 297,-174 297,-168 297,-168 297,-156 297,-156 297,-150 303,-144 309,-144 309,-144 385,-144 385,-144 391,-144 397,-150 397,-156 397,-156 397,-168 397,-168 397,-174 391,-180 385,-180"/>
<text text-anchor="middle" x="347" y="-159.5" font-family="sans" font-size="10.00">query_distributor</text>
</g>
<!-- 4&#45;&gt;1 -->
<g id="edge6" class="edge">
<title>4&#45;&gt;1</title>
<path fill="none" stroke="grey" stroke-width="2" d="M357.88,-143.7C362.99,-135.56 369.2,-125.69 374.84,-116.7"/>
<polygon fill="grey" stroke="grey" stroke-width="2" points="377.89,-118.43 380.25,-108.1 371.96,-114.71 377.89,-118.43"/>
</g>
<!-- 13 -->
<g id="node14" class="node">
<title>13</title>
<path fill="none" stroke="#59d856" stroke-width="2" d="M187,-108C187,-108 107,-108 107,-108 101,-108 95,-102 95,-96 95,-96 95,-84 95,-84 95,-78 101,-72 107,-72 107,-72 187,-72 187,-72 193,-72 199,-78 199,-84 199,-84 199,-96 199,-96 199,-102 193,-108 187,-108"/>
<text text-anchor="middle" x="147" y="-87.5" font-family="sans" font-size="10.00">bwa_mem2_mem</text>
</g>
<!-- 4&#45;&gt;13 -->
<g id="edge26" class="edge">
<title>4&#45;&gt;13</title>
<path fill="none" stroke="grey" stroke-width="2" d="M298.33,-143.97C270.39,-134.19 235.1,-121.84 205.64,-111.52"/>
<polygon fill="grey" stroke="grey" stroke-width="2" points="206.48,-108.11 195.89,-108.11 204.17,-114.72 206.48,-108.11"/>
</g>
<!-- 15 -->
<g id="node16" class="node">
<title>15</title>
<path fill="none" stroke="#59d856" stroke-width="2" d="M309,-108C309,-108 229,-108 229,-108 223,-108 217,-102 217,-96 217,-96 217,-84 217,-84 217,-78 223,-72 229,-72 229,-72 309,-72 309,-72 315,-72 321,-78 321,-84 321,-84 321,-96 321,-96 321,-102 315,-108 309,-108"/>
<text text-anchor="middle" x="269" y="-87.5" font-family="sans" font-size="10.00">bwa_mem2_mem</text>
</g>
<!-- 4&#45;&gt;15 -->
<g id="edge29" class="edge">
<title>4&#45;&gt;15</title>
<path fill="none" stroke="grey" stroke-width="2" d="M327.72,-143.7C318.08,-135.05 306.27,-124.45 295.77,-115.03"/>
<polygon fill="grey" stroke="grey" stroke-width="2" points="297.84,-112.18 288.06,-108.1 293.16,-117.39 297.84,-112.18"/>
</g>
<!-- 17 -->
<g id="node18" class="node">
<title>17</title>
<path fill="none" stroke="#59d856" stroke-width="2" d="M553,-108C553,-108 473,-108 473,-108 467,-108 461,-102 461,-96 461,-96 461,-84 461,-84 461,-78 467,-72 473,-72 473,-72 553,-72 553,-72 559,-72 565,-78 565,-84 565,-84 565,-96 565,-96 565,-102 559,-108 553,-108"/>
<text text-anchor="middle" x="513" y="-87.5" font-family="sans" font-size="10.00">bwa_mem2_mem</text>
</g>
<!-- 4&#45;&gt;17 -->
<g id="edge32" class="edge">
<title>4&#45;&gt;17</title>
<path fill="none" stroke="grey" stroke-width="2" d="M387.61,-143.88C410.4,-134.26 439.03,-122.19 463.17,-112.01"/>
<polygon fill="grey" stroke="grey" stroke-width="2" points="464.67,-115.18 472.52,-108.07 461.95,-108.73 464.67,-115.18"/>
</g>
<!-- 5 -->
<g id="node6" class="node">
<title>5</title>
<path fill="none" stroke="#d8bc56" stroke-width="2" d="M376.5,-252C376.5,-252 317.5,-252 317.5,-252 311.5,-252 305.5,-246 305.5,-240 305.5,-240 305.5,-228 305.5,-228 305.5,-222 311.5,-216 317.5,-216 317.5,-216 376.5,-216 376.5,-216 382.5,-216 388.5,-222 388.5,-228 388.5,-228 388.5,-240 388.5,-240 388.5,-246 382.5,-252 376.5,-252"/>
<text text-anchor="middle" x="347" y="-231.5" font-family="sans" font-size="10.00">raptor_search</text>
</g>
<!-- 5&#45;&gt;4 -->
<g id="edge8" class="edge">
<title>5&#45;&gt;4</title>
<path fill="none" stroke="grey" stroke-width="2" d="M347,-215.7C347,-207.98 347,-198.71 347,-190.11"/>
<polygon fill="grey" stroke="grey" stroke-width="2" points="350.5,-190.1 347,-180.1 343.5,-190.1 350.5,-190.1"/>
</g>
<!-- 6&#45;&gt;5 -->
<g id="edge9" class="edge">
<title>6&#45;&gt;5</title>
<path fill="none" stroke="grey" stroke-width="2" d="M347,-287.7C347,-279.98 347,-270.71 347,-262.11"/>
<polygon fill="grey" stroke="grey" stroke-width="2" points="350.5,-262.1 347,-252.1 343.5,-262.1 350.5,-262.1"/>
</g>
<!-- 7 -->
<g id="node8" class="node">
<title>7</title>
<path fill="none" stroke="#56d88a" stroke-width="2" d="M381,-396C381,-396 313,-396 313,-396 307,-396 301,-390 301,-384 301,-384 301,-372 301,-372 301,-366 307,-360 313,-360 313,-360 381,-360 381,-360 387,-360 393,-366 393,-372 393,-372 393,-384 393,-384 393,-390 387,-396 381,-396"/>
<text text-anchor="middle" x="347" y="-375.5" font-family="sans" font-size="10.00">chopper_layout</text>
</g>
<!-- 7&#45;&gt;6 -->
<g id="edge10" class="edge">
<title>7&#45;&gt;6</title>
<path fill="none" stroke="grey" stroke-width="2" d="M347,-359.7C347,-351.98 347,-342.71 347,-334.11"/>
<polygon fill="grey" stroke="grey" stroke-width="2" points="350.5,-334.1 347,-324.1 343.5,-334.1 350.5,-334.1"/>
</g>
<!-- 8&#45;&gt;7 -->
<g id="edge15" class="edge">
<title>8&#45;&gt;7</title>
<path fill="none" stroke="grey" stroke-width="2" d="M347.75,-431.7C347.64,-423.98 347.51,-414.71 347.39,-406.11"/>
<polygon fill="grey" stroke="grey" stroke-width="2" points="350.89,-406.05 347.24,-396.1 343.89,-406.15 350.89,-406.05"/>
</g>
<!-- 9&#45;&gt;8 -->
<g id="edge16" class="edge">
<title>9&#45;&gt;8</title>
<path fill="none" stroke="grey" stroke-width="2" d="M353.27,-503.7C352.5,-495.98 351.57,-486.71 350.71,-478.11"/>
<polygon fill="grey" stroke="grey" stroke-width="2" points="354.19,-477.71 349.71,-468.1 347.22,-478.4 354.19,-477.71"/>
</g>
<!-- 10 -->
<g id="node11" class="node">
<title>10</title>
<path fill="none" stroke="#d85656" stroke-width="2" d="M189,-612C189,-612 125,-612 125,-612 119,-612 113,-606 113,-600 113,-600 113,-588 113,-588 113,-582 119,-576 125,-576 125,-576 189,-576 189,-576 195,-576 201,-582 201,-588 201,-588 201,-600 201,-600 201,-606 195,-612 189,-612"/>
<text text-anchor="middle" x="157" y="-597" font-family="sans" font-size="10.00">create_bin_file</text>
<text text-anchor="middle" x="157" y="-586" font-family="sans" font-size="10.00">bin_id: 1</text>
</g>
<!-- 10&#45;&gt;6 -->
<g id="edge12" class="edge">
<title>10&#45;&gt;6</title>
<path fill="none" stroke="grey" stroke-width="2" d="M162.65,-575.94C176.75,-535.17 216.68,-430.3 276,-360 285.58,-348.65 298.03,-338.32 309.83,-329.86"/>
<polygon fill="grey" stroke="grey" stroke-width="2" points="312.02,-332.6 318.25,-324.04 308.04,-326.84 312.02,-332.6"/>
</g>
<!-- 10&#45;&gt;8 -->
<g id="edge18" class="edge">
<title>10&#45;&gt;8</title>
<path fill="none" stroke="grey" stroke-width="2" d="M180.04,-575.87C214.17,-550.5 278.25,-502.85 316.64,-474.32"/>
<polygon fill="grey" stroke="grey" stroke-width="2" points="318.94,-476.96 324.88,-468.19 314.77,-471.35 318.94,-476.96"/>
</g>
<!-- 10&#45;&gt;9 -->
<g id="edge22" class="edge">
<title>10&#45;&gt;9</title>
<path fill="none" stroke="grey" stroke-width="2" d="M201.44,-577.29C231.92,-566.51 272.44,-552.19 304.2,-540.96"/>
<polygon fill="grey" stroke="grey" stroke-width="2" points="305.49,-544.22 313.75,-537.58 303.16,-537.62 305.49,-544.22"/>
</g>
<!-- 14 -->
<g id="node15" class="node">
<title>14</title>
<path fill="none" stroke="#56c1d8" stroke-width="2" d="M94,-396C94,-396 12,-396 12,-396 6,-396 0,-390 0,-384 0,-384 0,-372 0,-372 0,-366 6,-360 12,-360 12,-360 94,-360 94,-360 100,-360 106,-366 106,-372 106,-372 106,-384 106,-384 106,-390 100,-396 94,-396"/>
<text text-anchor="middle" x="53" y="-375.5" font-family="sans" font-size="10.00">bwa_mem2_index</text>
</g>
<!-- 10&#45;&gt;14 -->
<g id="edge27" class="edge">
<title>10&#45;&gt;14</title>
<path fill="none" stroke="grey" stroke-width="2" d="M143.68,-575.94C136.16,-565.84 126.91,-552.59 120,-540 95.16,-494.74 73.68,-438.33 62.11,-405.71"/>
<polygon fill="grey" stroke="grey" stroke-width="2" points="65.32,-404.28 58.71,-396 58.71,-406.6 65.32,-404.28"/>
</g>
<!-- 11 -->
<g id="node12" class="node">
<title>11</title>
<path fill="none" stroke="#d85656" stroke-width="2" d="M299,-612C299,-612 235,-612 235,-612 229,-612 223,-606 223,-600 223,-600 223,-588 223,-588 223,-582 229,-576 235,-576 235,-576 299,-576 299,-576 305,-576 311,-582 311,-588 311,-588 311,-600 311,-600 311,-606 305,-612 299,-612"/>
<text text-anchor="middle" x="267" y="-597" font-family="sans" font-size="10.00">create_bin_file</text>
<text text-anchor="middle" x="267" y="-586" font-family="sans" font-size="10.00">bin_id: 2</text>
</g>
<!-- 11&#45;&gt;6 -->
<g id="edge13" class="edge">
<title>11&#45;&gt;6</title>
<path fill="none" stroke="grey" stroke-width="2" d="M265.01,-575.83C261.16,-535.7 255.94,-433.62 292,-360 297.37,-349.04 305.99,-339.11 314.82,-330.88"/>
<polygon fill="grey" stroke="grey" stroke-width="2" points="317.34,-333.33 322.57,-324.11 312.73,-328.06 317.34,-333.33"/>
</g>
<!-- 11&#45;&gt;8 -->
<g id="edge19" class="edge">
<title>11&#45;&gt;8</title>
<path fill="none" stroke="grey" stroke-width="2" d="M272.68,-575.92C279.18,-557.49 290.77,-527.6 305,-504 310.84,-494.31 318.31,-484.48 325.37,-475.95"/>
<polygon fill="grey" stroke="grey" stroke-width="2" points="328.13,-478.11 331.96,-468.23 322.81,-473.57 328.13,-478.11"/>
</g>
<!-- 11&#45;&gt;9 -->
<g id="edge23" class="edge">
<title>11&#45;&gt;9</title>
<path fill="none" stroke="grey" stroke-width="2" d="M288.75,-575.7C299.84,-566.88 313.47,-556.03 325.49,-546.47"/>
<polygon fill="grey" stroke="grey" stroke-width="2" points="327.85,-549.07 333.5,-540.1 323.49,-543.59 327.85,-549.07"/>
</g>
<!-- 16 -->
<g id="node17" class="node">
<title>16</title>
<path fill="none" stroke="#56c1d8" stroke-width="2" d="M246,-324C246,-324 164,-324 164,-324 158,-324 152,-318 152,-312 152,-312 152,-300 152,-300 152,-294 158,-288 164,-288 164,-288 246,-288 246,-288 252,-288 258,-294 258,-300 258,-300 258,-312 258,-312 258,-318 252,-324 246,-324"/>
<text text-anchor="middle" x="205" y="-303.5" font-family="sans" font-size="10.00">bwa_mem2_index</text>
</g>
<!-- 11&#45;&gt;16 -->
<g id="edge30" class="edge">
<title>11&#45;&gt;16</title>
<path fill="none" stroke="grey" stroke-width="2" d="M253.64,-575.84C246.62,-565.91 238.56,-552.87 234,-540 208.79,-468.83 204.88,-378.67 204.64,-334.26"/>
<polygon fill="grey" stroke="grey" stroke-width="2" points="208.14,-334.24 204.65,-324.24 201.14,-334.24 208.14,-334.24"/>
</g>
<!-- 12 -->
<g id="node13" class="node">
<title>12</title>
<path fill="none" stroke="#d85656" stroke-width="2" d="M600,-612C600,-612 536,-612 536,-612 530,-612 524,-606 524,-600 524,-600 524,-588 524,-588 524,-582 530,-576 536,-576 536,-576 600,-576 600,-576 606,-576 612,-582 612,-588 612,-588 612,-600 612,-600 612,-606 606,-612 600,-612"/>
<text text-anchor="middle" x="568" y="-597" font-family="sans" font-size="10.00">create_bin_file</text>
<text text-anchor="middle" x="568" y="-586" font-family="sans" font-size="10.00">bin_id: 3</text>
</g>
<!-- 12&#45;&gt;6 -->
<g id="edge14" class="edge">
<title>12&#45;&gt;6</title>
<path fill="none" stroke="grey" stroke-width="2" d="M572.75,-575.52C580.2,-544.23 591.15,-477.66 564,-432 526.94,-369.69 446.09,-335.52 394.22,-319.26"/>
<polygon fill="grey" stroke="grey" stroke-width="2" points="395.16,-315.89 384.57,-316.34 393.13,-322.59 395.16,-315.89"/>
</g>
<!-- 12&#45;&gt;8 -->
<g id="edge20" class="edge">
<title>12&#45;&gt;8</title>
<path fill="none" stroke="grey" stroke-width="2" d="M541.46,-575.87C501.9,-550.34 427.41,-502.25 383.29,-473.78"/>
<polygon fill="grey" stroke="grey" stroke-width="2" points="384.93,-470.67 374.63,-468.19 381.14,-476.55 384.93,-470.67"/>
</g>
<!-- 12&#45;&gt;9 -->
<g id="edge24" class="edge">
<title>12&#45;&gt;9</title>
<path fill="none" stroke="grey" stroke-width="2" d="M523.87,-578.5C489.56,-567.22 441.92,-551.57 405.99,-539.76"/>
<polygon fill="grey" stroke="grey" stroke-width="2" points="406.78,-536.33 396.19,-536.54 404.59,-542.98 406.78,-536.33"/>
</g>
<!-- 18 -->
<g id="node19" class="node">
<title>18</title>
<path fill="none" stroke="#56c1d8" stroke-width="2" d="M633,-252C633,-252 551,-252 551,-252 545,-252 539,-246 539,-240 539,-240 539,-228 539,-228 539,-222 545,-216 551,-216 551,-216 633,-216 633,-216 639,-216 645,-222 645,-228 645,-228 645,-240 645,-240 645,-246 639,-252 633,-252"/>
<text text-anchor="middle" x="592" y="-231.5" font-family="sans" font-size="10.00">bwa_mem2_index</text>
</g>
<!-- 12&#45;&gt;18 -->
<g id="edge33" class="edge">
<title>12&#45;&gt;18</title>
<path fill="none" stroke="grey" stroke-width="2" d="M578.98,-575.84C594.51,-549.89 621,-498.63 621,-451 621,-451 621,-451 621,-377 621,-336.21 609.37,-290.15 600.84,-261.84"/>
<polygon fill="grey" stroke="grey" stroke-width="2" points="604.18,-260.77 597.87,-252.26 597.49,-262.84 604.18,-260.77"/>
</g>
<!-- 13&#45;&gt;0 -->
<g id="edge2" class="edge">
<title>13&#45;&gt;0</title>
<path fill="none" stroke="grey" stroke-width="2" d="M191.77,-71.88C223.04,-59.91 264.28,-44.14 293.55,-32.94"/>
<polygon fill="grey" stroke="grey" stroke-width="2" points="294.9,-36.17 302.99,-29.33 292.4,-29.64 294.9,-36.17"/>
</g>
<!-- 14&#45;&gt;13 -->
<g id="edge25" class="edge">
<title>14&#45;&gt;13</title>
<path fill="none" stroke="grey" stroke-width="2" d="M58.6,-359.97C74.33,-312.09 119.04,-176.06 138.16,-117.9"/>
<polygon fill="grey" stroke="grey" stroke-width="2" points="141.51,-118.9 141.31,-108.31 134.86,-116.71 141.51,-118.9"/>
</g>
<!-- 15&#45;&gt;0 -->
<g id="edge3" class="edge">
<title>15&#45;&gt;0</title>
<path fill="none" stroke="grey" stroke-width="2" d="M284.08,-71.7C291.39,-63.3 300.31,-53.07 308.34,-43.86"/>
<polygon fill="grey" stroke="grey" stroke-width="2" points="311.16,-45.94 315.09,-36.1 305.89,-41.34 311.16,-45.94"/>
</g>
<!-- 16&#45;&gt;15 -->
<g id="edge28" class="edge">
<title>16&#45;&gt;15</title>
<path fill="none" stroke="grey" stroke-width="2" d="M210.13,-287.85C221.25,-250.68 247.64,-162.44 260.98,-117.82"/>
<polygon fill="grey" stroke="grey" stroke-width="2" points="264.33,-118.82 263.85,-108.23 257.63,-116.81 264.33,-118.82"/>
</g>
<!-- 17&#45;&gt;0 -->
<g id="edge4" class="edge">
<title>17&#45;&gt;0</title>
<path fill="none" stroke="grey" stroke-width="2" d="M468.23,-71.88C436.96,-59.91 395.72,-44.14 366.45,-32.94"/>
<polygon fill="grey" stroke="grey" stroke-width="2" points="367.6,-29.64 357.01,-29.33 365.1,-36.17 367.6,-29.64"/>
</g>
<!-- 18&#45;&gt;17 -->
<g id="edge31" class="edge">
<title>18&#45;&gt;17</title>
<path fill="none" stroke="grey" stroke-width="2" d="M582.47,-215.87C568.83,-191.35 543.62,-146.03 527.61,-117.26"/>
<polygon fill="grey" stroke="grey" stroke-width="2" points="530.48,-115.23 522.56,-108.19 524.37,-118.63 530.48,-115.23"/>
</g>
</g>
</svg>
